<?xml version="1.0" encoding="iso-8859-1"?>
<!-- Uploaded to: SVG Repo, www.svgrepo.com, Generator: SVG Repo Mixer Tools -->
<svg height="800px" width="800px" version="1.1" id="Layer_1" xmlns="http://www.w3.org/2000/svg" xmlns:xlink="http://www.w3.org/1999/xlink" 
	 viewBox="0 0 512 512" xml:space="preserve">
<path style="fill:#FA6E51;" d="M512,256.006C512,397.402,397.394,512.004,256.004,512C114.606,512.004,0,397.402,0,256.006
	C-0.007,114.61,114.606,0,256.004,0C397.394,0,512,114.614,512,256.006z"/>
<path style="fill:#E8573F;" d="M512,256.006c0-7.663-0.356-15.241-1.015-22.733c-2.636-2.857-104.63-103.553-105.193-103.961
	c-1.38-1.778-3.545-2.913-5.949-2.913H112.157c-3.332,0-6.256,2.13-7.175,5.217C56.909,293.202,84.434,367.628,85.63,370.721
	c0.567,1.464,128.924,131.41,132.327,134.577c1.468,1.557,2.958,3.069,4.47,4.51c10.989,1.439,22.194,2.191,33.575,2.191
	C397.394,512.004,512,397.402,512,256.006z"/>
<path style="fill:#F4F6F9;" d="M407.018,131.617c-0.918-3.087-3.843-5.217-7.175-5.217H112.157c-3.332,0-6.256,2.13-7.175,5.217
	C56.908,293.202,84.433,367.628,85.629,370.721c1.013,2.615,3.507,4.436,6.395,4.661l131.418,10.195
	c2.144,0.162,4.317-0.591,5.855-2.067L256,357.953l26.702,25.558c1.401,1.343,3.296,2.089,5.258,2.089
	c0.197,0,0.401-0.007,0.598-0.021l131.418-10.195c2.887-0.225,5.381-2.046,6.395-4.661
	C427.566,367.628,455.091,293.202,407.018,131.617z M117.801,140.8h276.398c2.154,7.412,4.089,14.569,5.922,21.6H111.878
	C113.712,155.369,115.647,148.212,117.801,140.8z M413.682,361.426l-122.901,9.534l-18.661-17.865
	c30.462-5.977,49.395-29.231,49.395-62.685c0-3.98-3.34-7.2-7.467-7.2s-7.467,3.22-7.467,7.2c0,31.219-18.908,49.852-50.582,49.852
	s-50.582-18.633-50.582-49.852c0-3.98-3.34-7.2-7.467-7.2s-7.467,3.22-7.467,7.2c0,33.455,18.933,56.708,49.395,62.685
	l-18.661,17.865l-122.892-9.534c-4.293-15.821-16.089-75.813,10.003-184.626h295.343
	C429.77,285.645,417.963,345.643,413.682,361.426z"/>
</svg>